<?xml version="1.0" standalone="no"?>
<!DOCTYPE svg PUBLIC "-//W3C//DTD SVG 20010904//EN"
 "http://www.w3.org/TR/2001/REC-SVG-20010904/DTD/svg10.dtd">
<svg version="1.0" xmlns="http://www.w3.org/2000/svg"
 width="160.000000pt" height="1280.000000pt" viewBox="0 0 160.000000 1280.000000"
 preserveAspectRatio="xMidYMid meet">

<g transform="translate(0.000000,1280.000000) scale(0.100000,-0.100000)"
fill="#000000" stroke="none">
<path d="M1107 8133 c-4 -3 -7 -96 -7 -205 l0 -198 -85 0 -85 0 -2 168 -3 167
-125 0 -125 0 -3 -167 -2 -168 -80 0 -80 0 0 195 0 195 -135 0 -135 0 0 -325
0 -325 570 0 570 0 0 335 0 335 -133 0 c-74 0 -137 -3 -140 -7z"/>
<path d="M242 7183 l3 -128 565 0 565 0 3 128 3 127 -571 0 -571 0 3 -127z"/>
<path d="M247 6893 c-4 -3 -7 -62 -7 -130 l0 -123 210 0 210 0 0 -155 0 -155
-210 0 -210 0 0 -130 0 -130 570 0 570 0 0 130 0 130 -225 0 -225 0 0 155 0
155 225 0 225 0 0 130 0 130 -563 0 c-310 0 -567 -3 -570 -7z"/>
<path d="M535 5956 c-81 -20 -141 -51 -196 -103 -92 -86 -94 -93 -97 -365 l-3
-238 570 0 571 0 0 130 0 130 -175 0 -175 0 0 88 c0 129 -19 183 -88 252 -99
99 -263 142 -407 106z m202 -281 c19 -22 23 -38 23 -96 l0 -69 -125 0 -125 0
0 69 c0 53 4 74 20 94 25 31 46 37 125 32 50 -3 64 -8 82 -30z"/>
<path d="M795 5012 l-550 -157 -3 -117 -3 -117 68 -20 c176 -52 1056 -301
1064 -301 5 0 9 58 9 129 l0 129 -72 17 c-40 9 -90 20 -110 26 l-38 10 0 124
0 124 43 12 c23 6 71 19 107 28 l65 18 3 127 c2 115 1 126 -15 125 -10 0 -265
-71 -568 -157z m155 -283 c0 -72 -2 -80 -17 -75 -10 3 -87 21 -171 42 -84 20
-151 38 -148 41 8 8 320 80 329 76 4 -2 7 -40 7 -84z"/>
<path d="M1157 4194 l-198 -95 -45 40 c-66 58 -139 83 -254 89 -79 3 -106 0
-160 -18 -84 -28 -152 -72 -196 -126 -57 -70 -64 -108 -64 -366 l0 -228 570 0
570 0 0 130 0 130 -175 0 -175 0 0 48 0 47 173 80 172 81 3 142 c2 110 0 142
-10 141 -7 0 -102 -43 -211 -95z m-438 -239 c34 -17 41 -38 41 -132 l0 -73
-125 0 -125 0 0 76 c0 85 8 107 48 128 35 20 125 20 161 1z"/>
<path d="M777 3363 c-4 -3 -7 -91 -7 -195 l0 -188 115 0 115 0 0 75 c0 41 4
75 8 75 13 0 58 -52 76 -86 59 -118 1 -243 -135 -290 -77 -27 -214 -25 -291 5
-68 26 -134 92 -143 145 -15 76 26 165 96 207 22 13 38 29 36 36 -1 6 -39 50
-85 98 l-83 86 -42 -25 c-59 -35 -131 -112 -162 -174 -127 -254 38 -554 350
-637 220 -58 486 -1 630 136 144 136 171 356 61 487 l-28 32 46 0 46 0 0 110
0 110 -298 0 c-164 0 -302 -3 -305 -7z"/>
<path d="M642 2390 c-215 -57 -374 -209 -402 -388 -37 -229 143 -454 415 -518
102 -24 275 -15 373 20 197 68 323 203 353 375 40 223 -141 449 -412 515 -89
22 -235 20 -327 -4z m344 -276 c32 -16 72 -46 89 -67 27 -35 30 -46 30 -107 0
-61 -3 -72 -30 -107 -18 -21 -57 -51 -90 -68 -56 -28 -67 -30 -175 -30 -108 0
-119 2 -175 30 -79 40 -115 86 -121 156 -7 69 23 131 83 173 62 43 123 56 235
53 83 -3 105 -8 154 -33z"/>
<path d="M240 1230 l0 -130 570 0 570 0 0 130 0 130 -570 0 -570 0 0 -130z"/>
<path d="M991 980 c-60 -13 -125 -53 -158 -98 -15 -20 -30 -40 -33 -45 -4 -4
-25 11 -48 32 -48 46 -144 81 -221 81 -99 0 -206 -48 -258 -116 l-28 -37 -3
-299 -3 -298 571 0 572 0 -4 278 c-3 255 -5 281 -25 330 -30 75 -62 113 -122
146 -58 31 -161 42 -240 26z m93 -271 c25 -20 26 -23 26 -140 l0 -120 -92 3
-93 3 -3 104 c-2 81 1 109 13 128 30 46 105 57 149 22z m-421 -41 c14 -16 17
-39 17 -119 l0 -99 -85 0 -85 0 0 103 c0 56 4 108 9 115 22 35 113 35 144 0z"/>
</g>
</svg>
