<?xml version="1.0" standalone="no"?>
<!DOCTYPE svg PUBLIC "-//W3C//DTD SVG 20010904//EN"
 "http://www.w3.org/TR/2001/REC-SVG-20010904/DTD/svg10.dtd">
<svg version="1.0" xmlns="http://www.w3.org/2000/svg"
 width="160.000000pt" height="1280.000000pt" viewBox="0 0 160.000000 1280.000000"
 preserveAspectRatio="xMidYMid meet">

<g transform="translate(0.000000,1280.000000) scale(0.100000,-0.100000)"
fill="#000000" stroke="none">
<path d="M917 4916 c-110 -31 -179 -110 -247 -287 -52 -135 -62 -149 -105
-149 -80 0 -73 127 14 267 17 26 27 51 23 54 -20 17 -236 100 -248 95 -23 -9
-101 -182 -115 -254 -49 -255 140 -451 414 -429 152 13 226 87 311 314 35 93
59 123 96 123 41 0 54 -29 46 -101 -6 -64 -39 -147 -86 -216 -17 -25 -28 -49
-23 -54 15 -15 257 -108 266 -102 21 13 96 192 112 267 33 150 7 293 -69 383
-15 18 -56 46 -90 63 -54 27 -78 32 -157 36 -62 3 -111 -1 -142 -10z"/>
<path d="M1100 3910 l0 -200 -85 0 -85 0 0 165 0 165 -130 0 -130 0 0 -165 0
-165 -80 0 -80 0 0 195 0 195 -135 0 -135 0 0 -325 0 -325 570 0 570 0 0 330
0 330 -140 0 -140 0 0 -200z"/>
<path d="M245 3348 c-3 -7 -4 -249 -3 -537 l3 -524 173 -80 c94 -45 172 -83
172 -87 0 -3 -78 -42 -172 -86 l-173 -80 -3 -137 c-1 -75 0 -137 4 -137 4 0
132 67 285 150 153 82 282 150 288 150 5 0 131 -65 280 -145 148 -80 273 -145
276 -145 3 0 4 62 3 137 l-3 137 -163 75 c-89 41 -162 78 -162 81 0 4 73 41
163 82 l162 75 3 136 c1 76 0 137 -3 137 -2 0 -126 -65 -274 -145 -149 -80
-275 -145 -282 -145 -6 0 -135 66 -285 148 l-274 147 125 3 125 3 0 134 0 135
433 2 432 3 3 128 3 127 -436 0 -435 0 0 135 0 135 -130 0 c-95 0 -132 -3
-135 -12z"/>
<path d="M1100 1445 l0 -205 -85 0 -85 0 0 170 0 170 -130 0 -130 0 0 -170 0
-170 -80 0 -80 0 0 200 0 200 -135 0 -135 0 0 -330 0 -330 570 0 570 0 0 335
0 335 -140 0 -140 0 0 -205z"/>
<path d="M240 495 l0 -395 135 0 134 0 3 132 3 133 433 3 432 2 0 125 0 125
-432 2 -433 3 -3 133 -3 132 -134 0 -135 0 0 -395z"/>
</g>
</svg>
