<?xml version="1.0" standalone="no"?>
<!DOCTYPE svg PUBLIC "-//W3C//DTD SVG 20010904//EN"
 "http://www.w3.org/TR/2001/REC-SVG-20010904/DTD/svg10.dtd">
<svg version="1.0" xmlns="http://www.w3.org/2000/svg"
 width="160.000000pt" height="1280.000000pt" viewBox="0 0 160.000000 1280.000000"
 preserveAspectRatio="xMidYMid meet">

<g transform="translate(0.000000,1280.000000) scale(0.100000,-0.100000)"
fill="#000000" stroke="none">
<path d="M180 5880 l0 -400 135 0 135 0 0 135 0 135 435 0 435 0 0 130 0 130
-435 0 -435 0 0 135 0 135 -135 0 -135 0 0 -400z"/>
<path d="M986 5355 l-75 -104 35 -17 c80 -38 122 -148 89 -232 -38 -94 -142
-147 -290 -147 -140 0 -233 44 -274 129 -48 98 -9 207 91 257 l27 14 -85 98
-86 97 -40 -22 c-231 -130 -275 -454 -88 -652 64 -67 144 -117 246 -152 69
-24 94 -28 204 -28 111 0 134 3 205 27 264 92 404 279 374 497 -19 129 -103
256 -208 313 l-49 27 -76 -105z"/>
<path d="M775 4450 c-286 -82 -537 -154 -557 -160 l-38 -11 0 -117 0 -117 562
-160 c309 -88 564 -159 567 -157 3 1 6 59 6 129 l0 127 -75 18 c-41 11 -92 24
-113 29 l-38 10 3 122 3 122 113 29 112 29 0 128 c0 97 -3 129 -12 128 -7 -1
-247 -68 -533 -149z m115 -290 c0 -44 -4 -80 -9 -80 -12 0 -303 70 -321 77
-15 6 263 80 308 82 21 1 22 -2 22 -79z"/>
<path d="M180 3400 l0 -400 135 0 135 0 0 135 0 135 433 2 432 3 3 128 3 127
-436 0 -435 0 0 135 0 135 -135 0 -135 0 0 -400z"/>
<path d="M180 2780 l0 -130 279 -2 280 -3 -279 -180 -279 -180 -1 -102 0 -103
570 0 570 0 0 130 0 130 -277 0 -278 0 278 185 277 185 0 100 0 100 -570 0
-570 0 0 -130z"/>
<path d="M600 1954 c-165 -35 -329 -156 -390 -287 -119 -253 54 -539 375 -622
76 -19 241 -19 325 1 156 36 315 153 373 274 54 111 52 245 -4 358 -106 215
-402 336 -679 276z m265 -259 c137 -36 206 -131 175 -244 -26 -99 -117 -152
-271 -159 -123 -5 -188 12 -252 68 -53 47 -71 92 -65 161 14 143 211 226 413
174z"/>
<path d="M993 908 c-38 -51 -72 -98 -76 -105 -5 -7 6 -18 28 -29 86 -40 126
-144 90 -232 -21 -49 -51 -79 -106 -107 -151 -77 -378 -39 -452 75 -25 40 -28
52 -25 106 5 76 38 132 97 161 l41 20 -52 59 c-28 33 -66 76 -84 97 l-34 37
-41 -21 c-101 -51 -180 -167 -202 -295 -55 -320 291 -595 668 -530 204 35 368
144 440 291 81 165 26 395 -122 506 -45 34 -86 59 -96 59 -3 0 -36 -42 -74
-92z"/>
</g>
</svg>
