<?xml version="1.0" standalone="no"?>
<!DOCTYPE svg PUBLIC "-//W3C//DTD SVG 20010904//EN"
 "http://www.w3.org/TR/2001/REC-SVG-20010904/DTD/svg10.dtd">
<svg version="1.0" xmlns="http://www.w3.org/2000/svg"
 width="160.000000pt" height="1280.000000pt" viewBox="0 0 160.000000 1280.000000"
 preserveAspectRatio="xMidYMid meet">
<metadata>
Created by potrace 1.16, written by Peter Selinger 2001-2019
</metadata>
<g transform="translate(0.000000,1280.000000) scale(0.100000,-0.100000)"
fill="#000000" stroke="none">
<path d="M1040 6260 l0 -210 -430 0 -430 0 0 -130 0 -130 570 0 570 0 0 340 0
340 -140 0 -140 0 0 -210z"/>
<path d="M1040 5490 l0 -210 -430 0 -430 0 0 -130 0 -130 568 2 567 3 3 338 2
337 -140 0 -140 0 0 -210z"/>
<path d="M180 4740 l0 -130 570 0 571 0 -3 128 -3 127 -567 3 -568 2 0 -130z"/>
<path d="M1040 4285 l0 -206 -87 3 -88 3 -3 168 -2 167 -125 0 -125 0 0 -170
0 -170 -80 0 -80 0 0 200 0 200 -135 0 -135 0 0 -330 0 -330 568 2 567 3 3
333 2 332 -140 0 -140 0 0 -205z"/>
<path d="M180 3551 l0 -130 358 -3 c339 -3 359 -4 402 -24 25 -12 59 -36 75
-53 25 -27 30 -41 30 -81 0 -60 -24 -97 -86 -127 -70 -35 -154 -43 -476 -43
l-303 0 0 -125 0 -125 345 0 c383 0 448 7 563 61 114 52 173 113 213 219 28
75 28 206 -1 284 -30 78 -111 164 -193 204 -122 60 -156 65 -559 69 l-368 5 0
-131z"/>
<path d="M992 2667 c-37 -51 -71 -97 -75 -104 -5 -8 5 -18 28 -29 69 -33 114
-117 101 -193 -20 -124 -192 -211 -362 -183 -99 16 -170 55 -206 111 -26 41
-29 53 -26 107 5 76 38 132 97 161 l41 20 -52 59 c-28 33 -66 76 -84 97 l-34
37 -41 -21 c-57 -29 -132 -106 -163 -167 -14 -28 -31 -83 -38 -122 -40 -234
123 -453 393 -526 79 -21 242 -24 319 -5 235 58 404 215 430 398 25 180 -83
385 -234 443 -24 9 -29 4 -94 -83z"/>
<path d="M986 1765 l-76 -105 40 -20 c106 -54 128 -197 44 -290 -54 -59 -126
-84 -249 -84 -94 -1 -105 1 -168 32 -93 46 -122 90 -122 183 0 60 3 71 31 106
17 21 47 47 67 58 l35 21 -80 92 c-44 50 -84 92 -89 92 -27 0 -92 -45 -141
-99 -181 -195 -123 -507 121 -656 31 -18 92 -46 136 -61 71 -25 94 -28 205
-28 110 0 135 4 205 28 299 102 437 329 354 584 -28 88 -115 189 -198 231
l-39 20 -76 -104z"/>
<path d="M775 860 c-286 -82 -537 -154 -557 -160 l-38 -11 0 -118 0 -117 558
-158 c306 -87 562 -159 567 -160 6 0 11 49 13 126 l3 127 -38 10 c-21 5 -72
18 -113 29 l-75 18 0 125 0 124 113 29 112 29 0 128 c0 97 -3 129 -12 128 -7
0 -247 -68 -533 -149z m115 -284 c0 -41 -5 -78 -10 -81 -9 -6 -303 61 -325 74
-10 6 272 78 313 80 21 1 22 -3 22 -73z"/>
</g>
</svg>
