<?xml version="1.0" standalone="no"?>
<!DOCTYPE svg PUBLIC "-//W3C//DTD SVG 20010904//EN"
 "http://www.w3.org/TR/2001/REC-SVG-20010904/DTD/svg10.dtd">
<svg version="1.0" xmlns="http://www.w3.org/2000/svg"
 width="160.000000pt" height="1280.000000pt" viewBox="0 0 160.000000 1280.000000"
 preserveAspectRatio="xMidYMid meet">

<g transform="translate(0.000000,1280.000000) scale(0.100000,-0.100000)"
fill="#000000" stroke="none">
<path d="M1028 7618 l-3 -203 -85 0 -85 0 -3 168 -2 167 -125 0 -125 0 -2
-167 -3 -168 -77 -3 -78 -3 0 201 0 200 -135 0 -135 0 0 -325 0 -325 570 0
570 0 -2 328 -3 327 -137 3 -138 3 -2 -203z"/>
<path d="M170 6881 l0 -131 338 0 c375 0 413 -5 477 -61 21 -19 39 -47 45 -71
10 -35 8 -46 -12 -86 -47 -94 -137 -112 -565 -112 l-283 0 0 -126 0 -125 373
3 c400 4 422 7 545 63 70 32 156 115 189 184 26 51 28 66 28 171 0 106 -2 120
-28 172 -34 68 -115 146 -191 182 -115 55 -152 59 -548 63 l-368 5 0 -131z"/>
<path d="M700 5865 l0 -195 110 0 110 0 0 75 c0 48 4 75 11 75 17 0 64 -55 84
-96 24 -52 17 -148 -14 -192 -77 -109 -285 -144 -436 -74 -86 41 -125 93 -125
169 0 82 34 136 118 193 23 15 22 16 -65 109 l-89 94 -55 -35 c-67 -43 -119
-104 -156 -184 -25 -53 -28 -70 -28 -165 0 -101 1 -108 37 -181 51 -102 128
-178 233 -228 110 -52 170 -65 305 -64 133 1 211 18 316 69 151 74 242 200
252 347 5 90 -8 141 -53 207 l-35 50 43 3 42 3 3 99 c2 73 -1 102 -10 108 -7
4 -145 8 -305 8 l-293 0 0 -195z"/>
<path d="M570 5079 c-122 -31 -196 -73 -281 -158 -100 -100 -123 -155 -124
-292 0 -90 2 -99 37 -171 67 -134 206 -240 373 -283 84 -21 234 -19 329 5 168
43 308 148 369 277 30 63 32 75 32 173 0 99 -2 110 -33 172 -112 228 -422 350
-702 277z m285 -254 c121 -32 178 -95 178 -197 0 -78 -35 -131 -115 -172 -103
-52 -296 -47 -385 11 -115 74 -126 217 -24 305 74 64 219 86 346 53z"/>
<path d="M1030 3920 l0 -210 -430 0 -430 0 0 -130 0 -130 568 2 567 3 0 335 0
335 -137 3 -138 3 0 -211z"/>
<path d="M725 3211 l-550 -157 0 -119 0 -120 535 -152 c294 -83 547 -155 563
-158 l27 -7 0 130 0 130 -92 22 c-51 11 -101 23 -110 26 -16 5 -18 20 -18 129
l0 123 110 27 110 27 0 129 c0 97 -3 129 -12 128 -7 -1 -260 -72 -563 -158z
m145 -282 c0 -72 -2 -80 -17 -75 -10 3 -67 17 -128 31 -155 36 -188 46 -182
51 7 7 277 72 305 73 21 1 22 -2 22 -80z"/>
<path d="M170 2175 l0 -395 135 0 135 0 0 130 0 130 428 2 427 3 3 128 3 127
-431 0 -430 0 0 135 0 135 -135 0 -135 0 0 -395z"/>
<path d="M750 1694 c-294 -84 -545 -155 -557 -159 -22 -5 -23 -9 -23 -123 l0
-118 497 -142 c274 -78 529 -151 566 -161 l68 -20 -3 132 -3 131 -105 26 -105
26 0 124 0 125 70 18 c39 10 87 23 108 28 l37 10 0 129 c0 72 -3 129 -7 129
-5 -1 -249 -70 -543 -155z m120 -284 c0 -48 -4 -80 -10 -80 -19 0 -305 73
-313 79 -6 6 272 78 311 80 9 1 12 -21 12 -79z"/>
<path d="M973 873 c-61 -84 -69 -99 -56 -108 38 -24 85 -70 100 -99 20 -40 20
-123 0 -163 -44 -84 -173 -140 -306 -130 -132 9 -231 62 -260 140 -15 39 -14
111 3 150 12 30 60 79 102 103 16 10 11 19 -61 102 -44 51 -87 92 -96 92 -31
0 -127 -80 -167 -139 -94 -141 -95 -328 -1 -466 199 -295 686 -328 952 -64 43
43 77 88 95 126 24 52 27 69 27 163 -1 124 -22 192 -89 273 -44 54 -128 117
-155 117 -10 0 -47 -41 -88 -97z"/>
</g>
</svg>
