<?xml version="1.0" standalone="no"?>
<!DOCTYPE svg PUBLIC "-//W3C//DTD SVG 20010904//EN"
 "http://www.w3.org/TR/2001/REC-SVG-20010904/DTD/svg10.dtd">
<svg version="1.0" xmlns="http://www.w3.org/2000/svg"
 width="160.000000pt" height="1280.000000pt" viewBox="0 0 160.000000 1280.000000"
 preserveAspectRatio="xMidYMid meet">

<g transform="translate(0.000000,1280.000000) scale(0.100000,-0.100000)"
fill="#000000" stroke="none">
<path d="M839 6206 c-112 -40 -167 -111 -244 -316 -30 -79 -62 -120 -94 -120
-63 0 -70 96 -15 210 19 41 42 82 50 92 18 20 24 16 -122 78 -137 59 -123 63
-180 -55 -116 -242 -69 -452 123 -547 60 -29 78 -33 169 -36 112 -5 157 5 214
46 55 39 98 102 136 199 55 141 76 177 108 188 24 8 31 6 48 -15 16 -20 19
-35 15 -75 -7 -66 -39 -150 -86 -221 l-37 -59 135 -56 136 -56 23 34 c59 86
112 264 112 375 0 160 -90 293 -222 333 -63 18 -219 19 -269 1z"/>
<path d="M1040 5205 l0 -205 -90 0 -90 0 0 170 0 170 -125 0 -125 0 0 -170 0
-170 -80 0 -80 0 0 200 0 200 -135 0 -135 0 0 -330 0 -330 570 0 570 0 0 335
0 335 -140 0 -140 0 0 -205z"/>
<path d="M1105 4564 c-117 -56 -204 -92 -211 -87 -124 94 -230 130 -353 120
-162 -13 -318 -118 -351 -235 -5 -20 -10 -140 -10 -269 l0 -233 570 0 571 0
-3 128 -3 127 -173 3 -173 2 3 47 3 47 173 80 172 80 0 143 c0 79 -3 143 -7
143 -5 0 -98 -43 -208 -96z m-441 -247 c25 -17 26 -22 26 -107 l0 -90 -120 0
-120 0 0 83 c0 90 7 104 60 126 35 15 123 8 154 -12z"/>
<path d="M182 3652 l3 -136 352 -86 c193 -47 354 -87 357 -90 3 -3 -157 -45
-354 -94 l-360 -88 0 -135 0 -135 24 6 c14 3 268 80 566 171 297 91 542 165
545 165 3 0 5 48 5 108 l0 107 -463 139 c-254 77 -510 154 -570 172 l-108 32
3 -136z"/>
<path d="M180 2701 l0 -130 358 -3 c339 -3 359 -4 402 -24 25 -12 59 -36 75
-53 25 -27 30 -41 30 -81 0 -60 -24 -97 -86 -127 -66 -34 -163 -42 -486 -43
l-293 0 0 -126 0 -125 378 4 c321 3 386 6 436 21 138 41 241 116 289 213 33
65 38 93 38 189 0 107 -26 176 -92 249 -62 67 -133 109 -235 137 -73 20 -108
22 -446 26 l-368 4 0 -131z"/>
<path d="M1040 1675 l0 -206 -87 3 -88 3 -3 168 -2 167 -125 0 -125 0 0 -170
0 -170 -80 0 -80 0 0 200 0 200 -135 0 -135 0 0 -325 0 -325 570 0 570 0 0
330 0 330 -140 0 -140 0 0 -205z"/>
<path d="M620 1096 c-148 -31 -272 -102 -353 -201 -68 -84 -91 -149 -91 -260
-1 -81 2 -97 31 -158 44 -92 92 -148 178 -206 138 -92 301 -126 469 -97 304
51 500 270 465 520 -24 172 -189 336 -394 391 -84 22 -226 27 -305 11z m282
-276 c91 -34 148 -107 148 -190 -1 -41 -35 -104 -76 -138 -136 -112 -424 -82
-502 53 -31 54 -27 136 10 192 28 43 104 89 170 103 64 14 187 4 250 -20z"/>
</g>
</svg>
